<svg width="35" height="35" viewBox="0 0 35 35" fill="none" xmlns="http://www.w3.org/2000/svg">
<path d="M5.69834 11.227C5.58003 11.4431 5.5427 11.6945 5.593 11.9363L5.77239 12.7986C5.88955 13.3617 6.44147 13.7254 7.00514 13.6109C7.56881 13.4963 7.93078 12.947 7.81363 12.3839L7.63424 11.5216C7.58393 11.2798 7.44927 11.0634 7.25428 10.9109C6.74692 10.5142 6.00617 10.6647 5.69834 11.227Z" fill="#21DA8C" stroke="#21DA8C" stroke-width="0.3"/>
<path d="M9.31562 10.6869C9.16143 10.8888 9.08652 11.1403 9.10501 11.3939L9.16224 12.1787C9.20408 12.7525 9.70327 13.1846 10.2772 13.1438C10.8511 13.1029 11.2825 12.6045 11.2406 12.0307L11.1834 11.2459C11.1649 10.9923 11.0543 10.754 10.8724 10.576C10.4247 10.1379 9.69513 10.1899 9.31562 10.6869Z" fill="#21DA8C" stroke="#21DA8C" stroke-width="0.3"/>
<path d="M12.7374 10.4072C12.5779 10.6107 12.5 10.8664 12.5189 11.1245L12.572 11.8532C12.6139 12.4271 13.1131 12.8591 13.687 12.8183C14.261 12.7774 14.6923 12.279 14.6504 11.7051L14.5973 10.9764C14.5784 10.7184 14.4643 10.4764 14.2769 10.2976C13.8313 9.87224 13.1166 9.92316 12.7374 10.4072Z" fill="#21DA8C" stroke="#21DA8C" stroke-width="0.3"/>
<path d="M16.2023 10.4134C16.0908 10.5936 16.0366 10.8034 16.0468 11.0151M16.2023 10.4134L16.0468 11.0151M16.2023 10.4134L16.2142 10.3942C16.6067 9.75956 17.5224 9.73795 17.9458 10.3533C18.055 10.512 18.1177 10.698 18.127 10.8903L18.1567 11.5087C18.1844 12.0834 17.7408 12.5712 17.166 12.5982C16.5913 12.6252 16.1029 12.1812 16.0753 11.6064L16.0468 11.0151M16.2023 10.4134L16.0468 11.0151" fill="#21DA8C" stroke="#21DA8C" stroke-width="0.3"/>
<path d="M20.047 10.455C19.9277 10.617 19.8574 10.8098 19.8443 11.0104L19.8048 11.6161C19.7674 12.1903 20.2026 12.6854 20.7768 12.7219C21.351 12.7585 21.8469 12.3227 21.8843 11.7485L21.9263 11.1049C21.9375 10.9317 21.905 10.7586 21.8315 10.6015C21.5003 9.89292 20.5308 9.79802 20.0664 10.4287L20.047 10.455Z" fill="#21DA8C" stroke="#21DA8C" stroke-width="0.3"/>
<path d="M23.2178 10.8699C23.1147 11.0149 23.0507 11.184 23.032 11.3607L22.9648 11.9966C22.9043 12.5688 23.3192 13.0805 23.8915 13.1396C24.4638 13.1987 24.9768 12.7828 25.0373 12.2106L25.1011 11.6074C25.1223 11.4069 25.0853 11.2048 24.9946 11.0251L24.9819 11C24.632 10.3065 23.6689 10.2355 23.2178 10.8699Z" fill="#21DA8C" stroke="#21DA8C" stroke-width="0.3"/>
<path d="M26.6047 11.1534C26.4925 11.2915 26.4177 11.456 26.3877 11.6311L26.2794 12.262C26.1821 12.829 26.5631 13.3657 27.1305 13.4608C27.6978 13.5559 28.2366 13.1733 28.334 12.6064L28.4367 12.0079C28.4708 11.8093 28.4469 11.6054 28.3681 11.4204L28.3571 11.3946C28.0526 10.6805 27.0958 10.5488 26.6047 11.1534Z" fill="#21DA8C" stroke="#21DA8C" stroke-width="0.3"/>
<path d="M6.8104 13.4793C6.05591 13.5345 5.60058 14.3397 5.94212 15.0147C6.1362 15.3983 6.54275 15.6267 6.97129 15.5928L16.336 14.8525C17.1108 14.7912 17.8892 14.7912 18.6641 14.8525L28.0287 15.5928C28.4573 15.6267 28.8638 15.3983 29.0579 15.0147C29.3994 14.3397 28.9441 13.5345 28.1896 13.4793L18.0709 12.7386C17.6908 12.7108 17.3092 12.7108 16.9291 12.7386L6.8104 13.4793Z" fill="#21DA8C" stroke="#21DA8C" stroke-width="0.3"/>
<path d="M33.6693 8.20038C33.2893 9.7237 32.4915 11.6485 31.7624 12.7106L31.7617 12.7116C31.4293 13.1874 31.0945 13.8081 30.824 14.4224C30.5529 15.038 30.351 15.6366 30.2786 16.0688C30.0887 17.2104 29.8193 18.0075 29.3218 18.6009C28.8233 19.1956 28.1122 19.5664 27.0844 19.8934L27.083 19.8939C21.5496 21.5939 13.4504 21.5939 7.91702 19.8939L7.91635 19.8937C6.86965 19.5667 6.15745 19.1958 5.66319 18.5954C5.17058 17.997 4.91101 17.1906 4.72142 16.0327C4.64894 15.6006 4.44709 15.002 4.176 14.3864C3.90549 13.7721 3.57068 13.1514 3.23829 12.6756L3.2376 12.6746C2.50928 11.6136 1.71113 9.76139 1.33055 8.19993C1.17055 7.57118 1.04962 7.08702 0.969364 6.70516C0.889325 6.32435 0.84757 6.03575 0.85011 5.80064C0.852704 5.56047 0.901493 5.37387 1.00134 5.1997C1.09754 5.03192 1.23775 4.88243 1.40606 4.71283C2.12858 3.9495 3.46549 3.22062 5.17146 2.59822C6.88375 1.97351 8.98623 1.44956 11.2565 1.10649L11.2571 1.10641L33.5239 8.1637M33.6693 8.20038C33.6694 8.20025 33.6694 8.20013 33.6694 8.2L33.5239 8.1637M33.6693 8.20038C33.6693 8.20048 33.6693 8.20058 33.6693 8.20069L33.5239 8.1637M33.6693 8.20038C33.8294 7.57141 33.9504 7.08711 34.0306 6.70516C34.1107 6.32435 34.1524 6.03575 34.1499 5.80064C34.1473 5.56047 34.0985 5.37387 33.9987 5.1997C33.9025 5.03193 33.7623 4.88244 33.594 4.71285M33.5239 8.1637C34.1649 5.64483 34.1649 5.50089 33.4862 4.8172M33.594 4.71285C33.5943 4.71326 33.5947 4.71368 33.5951 4.7141L33.4862 4.8172M33.594 4.71285C33.5935 4.71241 33.5931 4.71197 33.5926 4.71153L33.4862 4.8172M33.594 4.71285L33.4862 4.8172M27.0377 1.79299C27.038 1.79307 27.0383 1.79315 27.0386 1.79323L27.0012 1.9385L27.0368 1.79278C27.0371 1.79285 27.0374 1.79292 27.0377 1.79299ZM26.8124 3.55894L26.8124 3.55893C25.1125 3.11324 22.2128 2.78989 19.2788 2.64607C16.3456 2.50228 13.3981 2.53888 11.6032 2.80646C9.06816 3.20077 6.7343 3.86343 5.08511 4.58577C4.25915 4.94753 3.61367 5.32051 3.20055 5.67639C2.77674 6.04147 2.64633 6.34362 2.71352 6.57447L2.71374 6.57441L2.71559 6.58238C2.78957 6.9001 3.12699 8.04558 3.46707 9.16357L3.46712 9.16356L3.46811 9.16714C3.80053 10.3657 4.46492 11.4915 5.12228 12.1557C5.47314 12.4545 5.77404 12.8257 5.98824 13.1881C6.20078 13.5477 6.33902 13.9174 6.33902 14.209C6.33902 14.4395 6.40963 14.819 6.53148 15.2573C6.65226 15.6918 6.81962 16.1709 7.00515 16.5959L7.00516 16.5958L7.00602 16.5979C7.19262 17.0431 7.36874 17.3778 7.60763 17.6457C7.84432 17.9111 8.15032 18.1195 8.60909 18.2972C9.53913 18.6575 11.0624 18.8809 13.8215 19.2056C16.6005 19.4922 18.3997 19.4922 21.1407 19.2056C23.9187 18.8809 25.4517 18.6575 26.3914 18.297C26.8551 18.1191 27.1661 17.9105 27.4088 17.6444C27.6532 17.3765 27.836 17.0422 28.0315 16.5982C28.1987 16.1723 28.3568 15.693 28.4728 15.2587C28.5903 14.8194 28.661 14.4398 28.661 14.209C28.661 13.9174 28.7992 13.5477 29.0118 13.1881C29.2263 12.8251 29.5278 12.4534 29.8793 12.1544C30.3844 11.6709 30.8918 10.8306 31.3022 9.8381C31.7122 8.84648 32.0191 7.71793 32.1305 6.67247L32.1305 6.67247L32.1308 6.67001C32.1949 6.15033 31.868 5.63006 30.9863 5.0986C30.1098 4.57027 28.7318 4.0618 26.8124 3.55894ZM11.5806 2.65817C15.2001 2.11842 23.4194 2.51424 26.8504 3.41384L11.5806 2.65817Z" fill="#21DA8C" stroke="#21DA8C" stroke-width="0.3"/>
<path d="M9.97044 22.9342L9.97037 22.9341L9.97218 22.9299C10.0624 22.7194 10.1764 22.554 10.322 22.4579C10.4761 22.3561 10.6495 22.3429 10.8225 22.4078C10.9875 22.4696 11.1485 22.6004 11.3046 22.779C11.4622 22.9592 11.6236 23.1983 11.787 23.4918L11.787 23.4918L11.788 23.4936C12.1304 24.1291 12.3227 24.6393 12.3431 25.1192C12.3636 25.6053 12.2073 26.0404 11.8956 26.524C11.7329 26.7829 11.6653 26.9688 11.6692 27.1647C11.6732 27.366 11.7529 27.6003 11.9381 27.9543C12.5415 28.9939 12.326 30.2461 11.4367 31.3912C11.331 31.5377 11.233 31.6562 11.1376 31.7447C11.0418 31.8336 10.9415 31.8991 10.8312 31.9278C10.5983 31.9884 10.3947 31.8695 10.2008 31.703L10.2007 31.7032L10.195 31.6977C10.0025 31.514 9.89407 31.3149 9.89407 31.0404C9.89407 30.7833 9.98992 30.4712 10.1598 30.057L10.1598 30.0569L10.1607 30.0548C10.3266 29.6678 10.4031 29.3743 10.4031 29.0973C10.4031 28.8215 10.3272 28.5472 10.1629 28.1987L10.1629 28.1987L10.1613 28.1953C10.0055 27.842 9.91332 27.5157 9.90822 27.1653C9.90315 26.8169 9.98432 26.4561 10.1575 26.0324C10.4166 25.2179 10.4362 24.7343 10.1699 24.2895L10.1683 24.2869C10.045 24.071 9.96413 23.8191 9.92871 23.5825C9.89381 23.3493 9.90033 23.1126 9.97044 22.9342Z" fill="#21DA8C" stroke="#21DA8C" stroke-width="0.3"/>
<path d="M23.5429 22.9342L23.5429 22.9341L23.5447 22.9299C23.6349 22.7194 23.7489 22.554 23.8945 22.4579C24.0486 22.3561 24.222 22.3429 24.395 22.4078C24.56 22.4696 24.7209 22.6004 24.8771 22.779C25.0347 22.9593 25.196 23.1983 25.3594 23.4918L25.3594 23.4918L25.3604 23.4936C25.7028 24.1291 25.8952 24.6393 25.9155 25.1192C25.936 25.6053 25.7797 26.0404 25.468 26.524C25.3054 26.7828 25.2378 26.9688 25.2416 27.1647C25.2456 27.366 25.3253 27.6003 25.5105 27.9543C26.1139 28.9939 25.8984 30.2461 25.0091 31.3912C24.9035 31.5377 24.8054 31.6562 24.7101 31.7447C24.6143 31.8336 24.514 31.8991 24.4037 31.9278C24.1707 31.9884 23.9671 31.8695 23.7733 31.703L23.7732 31.7031L23.7675 31.6977C23.575 31.5139 23.4666 31.3149 23.4666 31.0404C23.4666 30.7833 23.5624 30.4712 23.7323 30.057L23.7323 30.057L23.7332 30.0548C23.8991 29.6678 23.9756 29.3744 23.9756 29.0973C23.9756 28.8215 23.8997 28.5472 23.7354 28.1987L23.7353 28.1987L23.7338 28.1953C23.578 27.842 23.4858 27.5157 23.4807 27.1653C23.4757 26.8169 23.5568 26.4561 23.73 26.0324C23.9891 25.2179 24.0087 24.7343 23.7424 24.2895L23.7408 24.2869C23.6175 24.071 23.5366 23.8191 23.5012 23.5825C23.4663 23.3493 23.4728 23.1126 23.5429 22.9342Z" fill="#21DA8C" stroke="#21DA8C" stroke-width="0.3"/>
<path d="M16.9916 25.7969L16.9915 25.7969L16.9896 25.7933C16.8692 25.5635 16.7796 25.2972 16.7345 25.0488C16.6906 24.8066 16.6847 24.5575 16.7563 24.3744C16.8458 24.1374 16.9651 23.9544 17.1249 23.8575C17.2969 23.7533 17.486 23.766 17.6635 23.8592C17.834 23.9487 18.001 24.1145 18.1625 24.3345C18.3255 24.5567 18.4904 24.8447 18.6534 25.1923L18.6536 25.1922L18.6566 25.1995C18.8838 25.7597 19.0148 26.1753 19.035 26.5753C19.0553 26.9787 18.9625 27.3522 18.7708 27.8284C18.6047 28.2867 18.5265 28.6356 18.5309 28.9829C18.5353 29.3308 18.6228 29.6895 18.808 30.1669C19.0172 30.6934 19.1219 31.0787 19.0961 31.4773C19.0705 31.8735 18.9169 32.2653 18.6523 32.8065L18.6523 32.8065L18.6519 32.8073C18.4766 33.1606 18.2516 33.4881 18.0233 33.7297C17.9092 33.8504 17.7912 33.9529 17.675 34.0262C17.5609 34.0982 17.4359 34.15 17.311 34.15C17.1165 34.15 16.9485 34.0861 16.825 33.9598C16.7035 33.8357 16.6386 33.6652 16.6197 33.475C16.5825 33.0989 16.7203 32.6087 17.0292 32.0915C17.2629 31.6429 17.2755 31.1532 16.9452 30.2767C16.7356 29.7671 16.6237 29.3685 16.6237 28.9623C16.6237 28.5563 16.7355 28.1579 16.9448 27.6487C17.1116 27.1886 17.1897 26.8479 17.194 26.5626C17.1983 26.2818 17.1312 26.0467 16.9916 25.7969Z" fill="#21DA8C" stroke="#21DA8C" stroke-width="0.3"/>
</svg>
