<svg width="35" height="37" viewBox="0 0 35 37" fill="none" xmlns="http://www.w3.org/2000/svg">
<path d="M5.69834 13.2271C5.58003 13.4432 5.5427 13.6946 5.593 13.9364L5.77239 14.7986C5.88955 15.3617 6.44147 15.7254 7.00514 15.6109C7.56881 15.4964 7.93078 14.947 7.81363 14.3839L7.63424 13.5216C7.58393 13.2799 7.44927 13.0634 7.25428 12.911C6.74692 12.5142 6.00617 12.6647 5.69834 13.2271Z" fill="#21DA8C" stroke="#21DA8C" stroke-width="0.3"/>
<path d="M9.31562 12.6868C9.16143 12.8888 9.08652 13.1402 9.10501 13.3938L9.16224 14.1786C9.20408 14.7525 9.70327 15.1846 10.2772 15.1437C10.8511 15.1029 11.2825 14.6045 11.2406 14.0306L11.1834 13.2458C11.1649 12.9922 11.0543 12.754 10.8724 12.576C10.4247 12.1379 9.69513 12.1899 9.31562 12.6868Z" fill="#21DA8C" stroke="#21DA8C" stroke-width="0.3"/>
<path d="M12.7373 12.4073C12.5778 12.6108 12.4999 12.8665 12.5187 13.1245L12.5719 13.8532C12.6138 14.4271 13.113 14.8592 13.6869 14.8183C14.2609 14.7774 14.6922 14.279 14.6503 13.7052L14.5972 12.9764C14.5783 12.7184 14.4641 12.4764 14.2768 12.2976C13.8312 11.8723 13.1165 11.9232 12.7373 12.4073Z" fill="#21DA8C" stroke="#21DA8C" stroke-width="0.3"/>
<path d="M16.2023 12.4134C16.0908 12.5936 16.0366 12.8033 16.0468 13.0151M16.2023 12.4134L16.0468 13.0151M16.2023 12.4134L16.2142 12.3941C16.6067 11.7595 17.5224 11.7379 17.9458 12.3533C18.055 12.512 18.1177 12.698 18.127 12.8903L18.1567 13.5086C18.1844 14.0834 17.7408 14.5712 17.166 14.5982C16.5913 14.6252 16.1029 14.1811 16.0753 13.6064L16.0468 13.0151M16.2023 12.4134L16.0468 13.0151" fill="#21DA8C" stroke="#21DA8C" stroke-width="0.3"/>
<path d="M20.047 12.455C19.9277 12.617 19.8574 12.8098 19.8443 13.0104L19.8048 13.6161C19.7674 14.1903 20.2026 14.6854 20.7768 14.7219C21.351 14.7585 21.8469 14.3226 21.8843 13.7485L21.9263 13.1049C21.9375 12.9317 21.905 12.7586 21.8315 12.6015C21.5003 11.8929 20.5308 11.798 20.0664 12.4287L20.047 12.455Z" fill="#21DA8C" stroke="#21DA8C" stroke-width="0.3"/>
<path d="M23.2178 12.8699C23.1147 13.0149 23.0507 13.1839 23.032 13.3607L22.9648 13.9966C22.9043 14.5688 23.3192 15.0805 23.8915 15.1396C24.4638 15.1987 24.9768 14.7827 25.0373 14.2106L25.1011 13.6073C25.1223 13.4069 25.0853 13.2048 24.9946 13.025L24.9819 12.9999C24.632 12.3065 23.6689 12.2355 23.2178 12.8699Z" fill="#21DA8C" stroke="#21DA8C" stroke-width="0.3"/>
<path d="M26.6047 13.1534C26.4925 13.2915 26.4177 13.456 26.3877 13.6311L26.2794 14.262C26.1821 14.829 26.5631 15.3657 27.1305 15.4608C27.6978 15.5558 28.2366 15.1733 28.334 14.6063L28.4367 14.0078C28.4708 13.8093 28.4469 13.6054 28.3681 13.4204L28.3571 13.3946C28.0526 12.6805 27.0958 12.5488 26.6047 13.1534Z" fill="#21DA8C" stroke="#21DA8C" stroke-width="0.3"/>
<path d="M6.8104 15.4794C6.05591 15.5346 5.60058 16.3398 5.94212 17.0148C6.1362 17.3984 6.54275 17.6267 6.97129 17.5928L16.336 16.8525C17.1108 16.7913 17.8892 16.7913 18.6641 16.8525L28.0287 17.5928C28.4573 17.6267 28.8638 17.3984 29.0579 17.0148C29.3994 16.3398 28.9441 15.5346 28.1896 15.4794L18.0709 14.7387C17.6908 14.7109 17.3092 14.7109 16.9291 14.7387L6.8104 15.4794Z" fill="#21DA8C" stroke="#21DA8C" stroke-width="0.3"/>
<path d="M11.2491 3.05707L11.2498 3.05696C13.0978 2.78423 16.2049 2.74002 19.2617 2.87059C22.3167 3.00107 25.3502 3.30729 27.0499 3.74452C30.2929 4.5364 32.5303 5.51761 33.6298 6.67797C33.7977 6.84719 33.9422 7.0008 34.042 7.17485C34.1467 7.3574 34.1972 7.55261 34.1999 7.80011C34.2025 8.04088 34.1598 8.33384 34.0796 8.71546C33.999 9.09861 33.8778 9.58392 33.7178 10.2127C33.3367 11.74 32.537 13.6706 31.8036 14.7389L31.8027 14.7402C31.4726 15.2128 31.1393 15.8304 30.8698 16.4425C30.5994 17.0566 30.3993 17.651 30.3278 18.0772C30.1375 19.2214 29.8663 20.0292 29.3601 20.633C28.8526 21.2385 28.1306 21.6131 27.0996 21.9411L27.0977 21.9417C21.5547 23.6447 13.4453 23.6447 7.90233 21.9417L7.90144 21.9414C6.85146 21.6134 6.12808 21.2388 5.62459 20.6272C5.12331 20.0183 4.86204 19.2009 4.6721 18.0409C4.60059 17.6147 4.40058 17.0204 4.13024 16.4065C3.86068 15.7944 3.52737 15.1768 3.1973 14.7043L3.19638 14.7029C2.46407 13.6361 1.66381 11.7782 1.28203 10.2121C1.12212 9.58361 1.00094 9.09849 0.920433 8.71546C0.840225 8.33384 0.797512 8.04088 0.800113 7.80011C0.802786 7.55261 0.853307 7.3574 0.957966 7.17485C1.05775 7.00081 1.20228 6.84721 1.3702 6.678C2.10104 5.90615 3.44684 5.17422 5.15432 4.55127C6.87026 3.92523 8.97605 3.40055 11.2491 3.05707ZM26.7997 5.60732L26.7997 5.60731C25.1051 5.16299 22.2096 4.83981 19.2764 4.69602C16.3441 4.55228 13.4006 4.58909 11.6107 4.85592C9.07896 5.24973 6.74952 5.91137 5.10517 6.63158C4.28117 6.99249 3.64085 7.3631 3.23318 7.71429C2.81126 8.07775 2.70336 8.36066 2.76153 8.56052L2.76182 8.56043L2.76429 8.57105C2.83779 8.88674 3.17457 10.0302 3.51491 11.149L3.51497 11.149L3.51629 11.1538C3.84641 12.344 4.50604 13.4613 5.15631 14.1191C5.511 14.4214 5.81481 14.7964 6.03129 15.1626C6.24554 15.5251 6.38902 15.9042 6.38902 16.209C6.38902 16.4324 6.45804 16.8064 6.57965 17.2439C6.69985 17.6763 6.86645 18.1532 7.05097 18.5759L7.05099 18.5759L7.05213 18.5786C7.23809 19.0223 7.41165 19.3508 7.64495 19.6124C7.87531 19.8708 8.17413 20.0751 8.62715 20.2506C9.54987 20.6081 11.0656 20.8309 13.827 21.1559C16.6023 21.4422 18.3979 21.4421 21.1352 21.1559C23.9154 20.831 25.441 20.6081 26.3735 20.2504C26.8315 20.0747 27.1355 19.8699 27.3719 19.6107C27.6106 19.3491 27.7906 19.021 27.9854 18.579C28.1518 18.155 28.3091 17.6779 28.4245 17.2459C28.5418 16.807 28.611 16.4328 28.611 16.209C28.611 15.9042 28.7545 15.5251 28.9687 15.1626C29.1856 14.7957 29.4902 14.4199 29.8458 14.1172C30.3433 13.6405 30.847 12.808 31.256 11.819C31.6644 10.8312 31.97 9.70729 32.0808 8.66718L32.0808 8.66718L32.0812 8.66391C32.1415 8.17491 31.8376 7.67013 30.9605 7.14144C30.0903 6.61691 28.718 6.10988 26.7997 5.60732Z" fill="#21DA8C" stroke="#21DA8C" stroke-width="0.4"/>
<path d="M9.97032 24.9342L9.97025 24.9341L9.97206 24.9299C10.0623 24.7194 10.1762 24.554 10.3219 24.4579C10.476 24.3562 10.6494 24.3429 10.8224 24.4078C10.9874 24.4696 11.1484 24.6004 11.3045 24.779C11.4621 24.9593 11.6235 25.1983 11.7869 25.4918L11.7869 25.4918L11.7878 25.4936C12.1303 26.1291 12.3226 26.6393 12.3429 27.1192C12.3635 27.6053 12.2072 28.0404 11.8954 28.5241C11.7328 28.7829 11.6652 28.9688 11.6691 29.1647C11.6731 29.3661 11.7527 29.6003 11.938 29.9543C12.5414 30.994 12.3259 32.2461 11.4366 33.3912C11.3309 33.5377 11.2329 33.6562 11.1375 33.7447C11.0417 33.8336 10.9414 33.8991 10.8311 33.9278C10.5981 33.9884 10.3945 33.8695 10.2007 33.703L10.2006 33.7032L10.1949 33.6977C10.0023 33.514 9.89395 33.3149 9.89395 33.0405C9.89395 32.7833 9.9898 32.4713 10.1597 32.057L10.1596 32.057L10.1606 32.0548C10.3265 31.6678 10.403 31.3744 10.403 31.0973C10.403 30.8215 10.3271 30.5473 10.1628 30.1987L10.1627 30.1987L10.1612 30.1953C10.0053 29.842 9.9132 29.5157 9.9081 29.1654C9.90303 28.8169 9.9842 28.4561 10.1573 28.0324C10.4165 27.2179 10.4361 26.7343 10.1698 26.2895L10.1682 26.2869C10.0448 26.0711 9.964 25.8191 9.92859 25.5825C9.89369 25.3493 9.9002 25.1126 9.97032 24.9342Z" fill="#21DA8C" stroke="#21DA8C" stroke-width="0.3"/>
<path d="M23.5431 24.9342L23.543 24.9341L23.5448 24.9299C23.6351 24.7194 23.749 24.554 23.8946 24.4579C24.0487 24.3562 24.2221 24.3429 24.3951 24.4078C24.5601 24.4696 24.7211 24.6004 24.8772 24.779C25.0348 24.9593 25.1962 25.1983 25.3595 25.4918L25.3595 25.4918L25.3605 25.4936C25.703 26.1291 25.8953 26.6393 25.9156 27.1192C25.9362 27.6053 25.7798 28.0404 25.4681 28.5241C25.3055 28.7829 25.2379 28.9688 25.2418 29.1647C25.2457 29.3661 25.3254 29.6003 25.5106 29.9543C26.114 30.994 25.8985 32.2461 25.0093 33.3912C24.9036 33.5377 24.8056 33.6562 24.7102 33.7447C24.6144 33.8336 24.5141 33.8991 24.4038 33.9278C24.1709 33.9884 23.9673 33.8695 23.7734 33.703L23.7733 33.7032L23.7676 33.6977C23.5751 33.514 23.4667 33.3149 23.4667 33.0405C23.4667 32.7833 23.5625 32.4713 23.7324 32.057L23.7324 32.057L23.7333 32.0548C23.8992 31.6678 23.9757 31.3744 23.9757 31.0973C23.9757 30.8215 23.8998 30.5473 23.7355 30.1987L23.7355 30.1987L23.734 30.1953C23.5781 29.842 23.486 29.5157 23.4809 29.1654C23.4758 28.8169 23.5569 28.4561 23.7301 28.0324C23.9892 27.2179 24.0088 26.7343 23.7425 26.2895L23.741 26.2869C23.6176 26.071 23.5368 25.8191 23.5013 25.5825C23.4664 25.3493 23.473 25.1126 23.5431 24.9342Z" fill="#21DA8C" stroke="#21DA8C" stroke-width="0.3"/>
<path d="M16.9917 27.7969L16.9916 27.7969L16.9897 27.7933C16.8694 27.5635 16.7797 27.2972 16.7347 27.0488C16.6907 26.8066 16.6848 26.5575 16.7564 26.3744C16.8459 26.1374 16.9652 25.9544 17.125 25.8575C17.297 25.7533 17.4861 25.766 17.6636 25.8592C17.8342 25.9487 18.0012 26.1145 18.1626 26.3345C18.3256 26.5567 18.4906 26.8447 18.6535 27.1923L18.6537 27.1922L18.6567 27.1995C18.8839 27.7597 19.0149 28.1753 19.0351 28.5753C19.0555 28.9787 18.9626 29.3522 18.7709 29.8284C18.6048 30.2867 18.5266 30.6356 18.531 30.9829C18.5354 31.3308 18.6229 31.6895 18.8081 32.1669C19.0173 32.6934 19.122 33.0787 19.0962 33.4773C19.0706 33.8735 18.917 34.2653 18.6524 34.8065L18.6524 34.8065L18.652 34.8073C18.4767 35.1606 18.2517 35.4881 18.0234 35.7297C17.9093 35.8504 17.7913 35.9529 17.6751 36.0262C17.561 36.0982 17.436 36.15 17.3111 36.15C17.1167 36.15 16.9486 36.0861 16.8251 35.9598C16.7037 35.8357 16.6387 35.6652 16.6199 35.475C16.5826 35.0989 16.7204 34.6087 17.0294 34.0915C17.2631 33.6429 17.2756 33.1532 16.9453 32.2767C16.7357 31.7671 16.6238 31.3685 16.6238 30.9623C16.6238 30.5563 16.7356 30.1579 16.945 29.6487C17.1117 29.1886 17.1898 28.8479 17.1941 28.5626C17.1984 28.2818 17.1313 28.0467 16.9917 27.7969Z" fill="#21DA8C" stroke="#21DA8C" stroke-width="0.3"/>
</svg>
