<svg width="26" height="26" viewBox="0 0 26 26" fill="none" xmlns="http://www.w3.org/2000/svg">
<path d="M24.887 0.993031C24.6483 0.838138 24.3815 0.731783 24.1017 0.680041C23.822 0.628298 23.5348 0.632182 23.2565 0.691471C22.9782 0.750759 22.7144 0.864291 22.48 1.02558C22.2456 1.18687 22.0453 1.39275 21.8905 1.63148L9.74995 20.345L3.82917 14.8705C3.62028 14.6774 3.37538 14.5273 3.10848 14.4288C2.84157 14.3303 2.55788 14.2853 2.27359 14.2964C1.69945 14.3189 1.15775 14.5685 0.767668 14.9904C0.377587 15.4123 0.171072 15.9719 0.193556 16.546C0.216039 17.1201 0.465679 17.6618 0.887557 18.0519L8.66156 25.2395C8.66156 25.2395 8.88472 25.4316 8.988 25.4988C9.22668 25.6538 9.49357 25.7602 9.77342 25.812C10.0533 25.8638 10.3406 25.86 10.6189 25.8007C10.8973 25.7414 11.1612 25.6278 11.3957 25.4665C11.6301 25.3051 11.8304 25.0991 11.9852 24.8603L25.5254 3.98953C25.6803 3.75088 25.7867 3.48404 25.8384 3.20427C25.8902 2.9245 25.8863 2.63728 25.827 2.35901C25.7677 2.08075 25.6542 1.81689 25.4929 1.58251C25.3316 1.34813 25.1257 1.14782 24.887 0.993031V0.993031Z" fill="#21DA8C"/>
</svg>
