<svg width="41" height="33" viewBox="0 0 41 33" fill="none" xmlns="http://www.w3.org/2000/svg">
<path d="M28.5392 10.989C29.2671 12.2611 29.7627 13.6856 29.9576 15.226H24.9538C23.9465 10.4827 18.1866 7.78901 13.5164 10.3494C8.38921 13.1602 8.38032 20.2176 13.489 23.0438C13.3587 25.3559 13.9932 29.4541 19.8858 30.3194V33H15.6684L14.2694 28.3801C13.2957 28.1441 12.3297 27.791 11.3876 27.3096L6.63655 29.949L3.80907 27.2602L6.37773 22.6967C5.87923 21.8638 5.48801 20.977 5.21252 20.0552L0 18.7087V14.8997L5.18465 13.4515C5.45083 12.5324 5.83152 11.6392 6.32817 10.794L3.69128 6.31086L6.51867 3.62223L11.2708 6.16077C12.1773 5.68628 13.1072 5.33058 14.045 5.0853L15.5113 0H19.5168L21.0256 5.19191C21.9061 5.44848 22.7553 5.79361 23.5588 6.22146L28.5486 3.51021L31.376 6.19892L28.5392 10.9891V10.989ZM40.9195 20.9515C39.9018 14.3824 29.887 14.0623 27.3191 21.3728H21.3903L20.1191 24.1388L24.0751 24.1303C23.2719 25.3538 22.2002 26.1493 20.6049 25.9429C17.5322 25.3512 17.4852 21.3663 20.0284 19.7828C21.6455 18.6029 23.7492 19.3857 24.1362 20.4727L27.7793 19.5091C26.6227 16.3911 23.2777 15.1383 19.886 16.2045C17.7519 16.9067 14.142 19.6881 14.6013 24.1893C15.2287 28.8855 20.1062 30.3798 23.6988 28.6661C25.215 27.9429 26.4873 26.6746 27.2666 25.1271C28.5852 29.4781 33.5172 30.328 37.1271 28.3212C40.4915 26.4509 41.2813 23.2862 40.9196 20.9514L40.9195 20.9515ZM35.2431 25.5943C33.0302 26.639 31.2862 25.5466 30.8359 23.8806C30.4128 22.3151 31.096 19.8717 33.837 19.2765C37.8598 18.403 38.7895 23.9199 35.2431 25.5943Z" fill="#21DA8C"/>
</svg>
