<svg width="33" height="33" viewBox="0 0 33 33" fill="none" xmlns="http://www.w3.org/2000/svg">
<path d="M22.9706 10.989C23.5564 12.2611 23.9553 13.6856 24.1122 15.226H20.0847C19.274 10.4827 14.638 7.78901 10.879 10.3494C6.75229 13.1602 6.74514 20.2176 10.857 23.0438C10.7521 25.3559 11.2628 29.4541 16.0056 30.3194V33H12.6111L11.4851 28.3801C10.7014 28.1441 9.9239 27.791 9.16561 27.3096L5.34161 29.949L3.06584 27.2602L5.1333 22.6967C4.73206 21.8638 4.41718 20.977 4.19544 20.0552L0 18.7087V14.8997L4.17301 13.4515C4.38725 12.5324 4.69366 11.6392 5.0934 10.794L2.97103 6.31086L5.24674 3.62223L9.07164 6.16077C9.80125 5.68628 10.5497 5.33058 11.3045 5.0853L12.4847 0H15.7086L16.923 5.19191C17.6317 5.44848 18.3152 5.79361 18.962 6.22146L22.9782 3.51021L25.2539 6.19892L22.9706 10.9891V10.989ZM32.9352 20.9515C32.116 14.3824 24.0554 14.0623 21.9885 21.3728H17.2166L16.1934 24.1388L19.3775 24.1303C18.731 25.3538 17.8684 26.1493 16.5844 25.9429C14.1113 25.3512 14.0735 21.3663 16.1204 19.7828C17.422 18.6029 19.1152 19.3857 19.4267 20.4727L22.359 19.5091C21.428 16.3911 18.7357 15.1383 16.0058 16.2045C14.2881 16.9067 11.3826 19.6881 11.7523 24.1893C12.2572 28.8855 16.1831 30.3798 19.0746 28.6661C20.295 27.9429 21.3191 26.6746 21.9463 25.1271C23.0076 29.4781 26.9773 30.328 29.8828 28.3212C32.5907 26.4509 33.2264 23.2862 32.9353 20.9514L32.9352 20.9515ZM28.3664 25.5943C26.5853 26.639 25.1815 25.5466 24.8191 23.8806C24.4786 22.3151 25.0285 19.8717 27.2346 19.2765C30.4726 18.403 31.2208 23.9199 28.3664 25.5943Z" fill="#21DA8C"/>
</svg>
