<svg width="35" height="35" viewBox="0 0 35 35" fill="none" xmlns="http://www.w3.org/2000/svg">
<path d="M7.96497 17.4129V27.0012H17.507L15.517 25.0016H9.95497V19.4125L7.96497 17.4129Z" fill="#21DA8C"/>
<path d="M7.96497 17.4129V27.0012H17.507L15.517 25.0016H9.95497V19.4125L7.96497 17.4129Z" stroke="#21DA8C" stroke-width="0.5"/>
<path d="M7.96497 17.4129V27.0012H17.507L15.517 25.0016H9.95497V19.4125L7.96497 17.4129Z" stroke="#21DA8C" stroke-width="0.5"/>
<path d="M33.7057 32.2903L30.85 29.3808V32.0003H2.99002V27.8511H4.98002V26.2514H2.99002V19.6025H4.98002V18.0028H2.99002V11.6039H4.98002V10.0042H2.99002V4.41521L18.8503 20.2624V17.4429L2.70147 1.29576C2.5623 1.15476 2.38449 1.0586 2.19071 1.01953C1.99694 0.98047 1.79598 1.00028 1.61345 1.07643C1.43093 1.15258 1.2751 1.28163 1.16585 1.44712C1.0566 1.61261 0.998868 1.80705 1.00002 2.00564V33.0002C1.00002 33.2653 1.10485 33.5196 1.29145 33.7071C1.47804 33.8946 1.73113 34 1.99502 34H32.9992C33.1968 34.0011 33.3903 33.9431 33.555 33.8333C33.7197 33.7236 33.8481 33.567 33.9239 33.3836C33.9997 33.2002 34.0194 32.9982 33.9806 32.8035C33.9417 32.6088 33.846 32.4301 33.7057 32.2903V32.2903Z" fill="#21DA8C"/>
<path d="M33.7057 32.2903L30.85 29.3808V32.0003H2.99002V27.8511H4.98002V26.2514H2.99002V19.6025H4.98002V18.0028H2.99002V11.6039H4.98002V10.0042H2.99002V4.41521L18.8503 20.2624V17.4429L2.70147 1.29576C2.5623 1.15476 2.38449 1.0586 2.19071 1.01953C1.99694 0.98047 1.79598 1.00028 1.61345 1.07643C1.43093 1.15258 1.2751 1.28163 1.16585 1.44712C1.0566 1.61261 0.998868 1.80705 1.00002 2.00564V33.0002C1.00002 33.2653 1.10485 33.5196 1.29145 33.7071C1.47804 33.8946 1.73113 34 1.99502 34H32.9992C33.1968 34.0011 33.3903 33.9431 33.555 33.8333C33.7197 33.7236 33.8481 33.567 33.9239 33.3836C33.9997 33.2002 34.0194 32.9982 33.9806 32.8035C33.9417 32.6088 33.846 32.4301 33.7057 32.2903V32.2903Z" stroke="#21DA8C" stroke-width="0.5"/>
<path d="M33.7057 32.2903L30.85 29.3808V32.0003H2.99002V27.8511H4.98002V26.2514H2.99002V19.6025H4.98002V18.0028H2.99002V11.6039H4.98002V10.0042H2.99002V4.41521L18.8503 20.2624V17.4429L2.70147 1.29576C2.5623 1.15476 2.38449 1.0586 2.19071 1.01953C1.99694 0.98047 1.79598 1.00028 1.61345 1.07643C1.43093 1.15258 1.2751 1.28163 1.16585 1.44712C1.0566 1.61261 0.998868 1.80705 1.00002 2.00564V33.0002C1.00002 33.2653 1.10485 33.5196 1.29145 33.7071C1.47804 33.8946 1.73113 34 1.99502 34H32.9992C33.1968 34.0011 33.3903 33.9431 33.555 33.8333C33.7197 33.7236 33.8481 33.567 33.9239 33.3836C33.9997 33.2002 34.0194 32.9982 33.9806 32.8035C33.9417 32.6088 33.846 32.4301 33.7057 32.2903V32.2903Z" stroke="#21DA8C" stroke-width="0.5"/>
<path d="M22.89 30.0007H26.87C27.3978 30.0007 27.904 29.79 28.2772 29.415C28.6504 29.04 28.86 28.5314 28.86 28.001V8.70443L26.5715 4.47518C26.3945 4.16705 26.1389 3.91195 25.8311 3.7362C25.5233 3.56045 25.1743 3.4704 24.8203 3.47535C24.4583 3.47824 24.1039 3.58032 23.7953 3.77059C23.4867 3.96087 23.2357 4.23213 23.0691 4.55516L20.9 8.72443V28.001C20.9 28.5314 21.1097 29.04 21.4829 29.415C21.8561 29.79 22.3622 30.0007 22.89 30.0007ZM22.89 9.20434L24.8203 5.43501L26.87 9.21434V24.0017H22.89V9.20434ZM22.89 25.6314H26.87V28.071H22.89V25.6314Z" fill="#21DA8C"/>
<path d="M22.89 30.0007H26.87C27.3978 30.0007 27.904 29.79 28.2772 29.415C28.6504 29.04 28.86 28.5314 28.86 28.001V8.70443L26.5715 4.47518C26.3945 4.16705 26.1389 3.91195 25.8311 3.7362C25.5233 3.56045 25.1743 3.4704 24.8203 3.47535C24.4583 3.47824 24.1039 3.58032 23.7953 3.77059C23.4867 3.96087 23.2357 4.23213 23.0691 4.55516L20.9 8.72443V28.001C20.9 28.5314 21.1097 29.04 21.4829 29.415C21.8561 29.79 22.3622 30.0007 22.89 30.0007ZM22.89 9.20434L24.8203 5.43501L26.87 9.21434V24.0017H22.89V9.20434ZM22.89 25.6314H26.87V28.071H22.89V25.6314Z" stroke="#21DA8C" stroke-width="0.5"/>
<path d="M22.89 30.0007H26.87C27.3978 30.0007 27.904 29.79 28.2772 29.415C28.6504 29.04 28.86 28.5314 28.86 28.001V8.70443L26.5715 4.47518C26.3945 4.16705 26.1389 3.91195 25.8311 3.7362C25.5233 3.56045 25.1743 3.4704 24.8203 3.47535C24.4583 3.47824 24.1039 3.58032 23.7953 3.77059C23.4867 3.96087 23.2357 4.23213 23.0691 4.55516L20.9 8.72443V28.001C20.9 28.5314 21.1097 29.04 21.4829 29.415C21.8561 29.79 22.3622 30.0007 22.89 30.0007ZM22.89 9.20434L24.8203 5.43501L26.87 9.21434V24.0017H22.89V9.20434ZM22.89 25.6314H26.87V28.071H22.89V25.6314Z" stroke="#21DA8C" stroke-width="0.5"/>
<path d="M15.4275 25.0016L9.95496 19.5026V20.0025L14.93 25.0016H15.4275Z" stroke="#21DA8C" stroke-width="0.5"/>
<path d="M15.4275 25.0016L9.95496 19.5026V20.0025L14.93 25.0016H15.4275Z" stroke="#21DA8C" stroke-width="0.5"/>
<path d="M14.93 25.0016L9.95496 20.0024V20.5024L14.4325 25.0016H14.93Z" stroke="#21DA8C" stroke-width="0.5"/>
<path d="M14.93 25.0016L9.95496 20.0024V20.5024L14.4325 25.0016H14.93Z" stroke="#21DA8C" stroke-width="0.5"/>
</svg>
