<svg width="124" height="33" viewBox="0 0 124 33" fill="none" xmlns="http://www.w3.org/2000/svg">
<path d="M61.59 0.00072575C60.6163 0.00630641 59.6397 0.0648994 58.6548 0.184876C56.7715 0.416458 54.9048 0.801499 53.1136 1.62459C50.2648 2.93317 48.2448 5.15413 47.6588 8.38234C47.4105 9.74393 47.2096 11.1251 47.0952 12.5146C46.8748 15.2126 47.0115 17.9191 47.776 20.5781C48.3787 22.6735 49.4892 24.5568 51.4339 25.7789C52.257 26.2951 53.3424 26.5462 53.9088 26.8085C54.0678 26.8838 54.1069 26.9285 54.1152 26.9396C54.1236 26.948 54.1459 26.9675 54.1431 27.1349C54.1236 28.8425 54.1431 32.1461 54.1431 32.1461L54.1459 32.8575H55.421L55.6275 32.6566C55.6275 32.6566 58.8669 29.5401 60.0387 28.2566C60.2508 28.0278 60.3596 27.8994 60.3819 27.8855C60.4014 27.8715 60.368 27.8632 60.5856 27.8576C62.123 27.8269 63.6576 27.7683 65.1921 27.6846C67.215 27.573 69.2769 27.3805 71.2607 26.5518C72.9878 25.8291 74.4303 24.6489 75.3036 22.88C76.1965 21.0664 76.6736 19.1439 76.8522 17.1546C77.1479 13.8427 77.0447 10.5252 76.1295 7.25512C75.591 5.33828 74.5084 3.71721 72.8483 2.57325C70.8617 1.20607 68.6212 0.692683 66.4282 0.366236C65.1475 0.176505 63.8584 0.0509488 62.5638 0.0118864C62.2402 0.00351572 61.9165 -0.00206422 61.59 0.00072575ZM62.5247 1.44044C63.7552 1.47393 64.9857 1.5939 66.2189 1.77805C68.3338 2.09334 70.3288 2.57325 72.0392 3.75069C73.4259 4.70492 74.2908 5.99397 74.754 7.63737C75.6078 10.6954 75.7166 13.8287 75.4292 17.029C75.2646 18.8733 74.8265 20.6116 74.0202 22.2494C73.3087 23.6947 72.1982 24.6126 70.7083 25.2348C68.9784 25.9575 67.0978 26.15 65.1168 26.2588C63.599 26.3425 62.0783 26.3983 60.5577 26.429C60.1754 26.4374 59.8016 26.5378 59.5365 26.7332C59.2714 26.9285 59.1515 27.1098 58.9868 27.2884C58.1498 28.2036 56.4813 29.8135 55.5717 30.6952C55.5661 29.6293 55.5577 28.3403 55.5717 27.1517C55.5773 26.7862 55.4936 26.4123 55.2843 26.1165C55.075 25.8208 54.7877 25.6422 54.5114 25.5139C53.7051 25.14 52.6504 24.8554 52.1928 24.568C50.5941 23.5635 49.6873 22.0569 49.1488 20.1819C48.4429 17.7293 48.3089 15.2043 48.5182 12.6345C48.6298 11.3008 48.8223 9.96435 49.0651 8.63903C49.5729 5.84609 51.1688 4.0883 53.7079 2.92201C55.3122 2.18541 57.0254 1.82269 58.8306 1.60227C60.061 1.4516 61.2915 1.40417 62.5247 1.44044ZM62.8261 5.00068C62.2374 5.00068 61.6654 5.06764 61.1101 5.19041C60.7279 5.27969 60.4851 5.66194 60.5716 6.04698C60.6581 6.43202 61.0432 6.67198 61.4282 6.58548C61.8774 6.48225 62.3462 6.42923 62.8261 6.42923C66.3138 6.42923 69.1262 9.24171 69.1262 12.7266C69.1262 13.2093 69.0732 13.678 68.97 14.13C68.8835 14.5123 69.1235 14.8973 69.5085 14.9838C69.8935 15.0703 70.2758 14.8276 70.3623 14.4425C70.4878 13.8901 70.5548 13.3181 70.5548 12.7266C70.5548 8.46883 67.0866 5.00068 62.8261 5.00068ZM55.7 6.43202C55.5829 6.42644 55.4629 6.43481 55.3373 6.46271C54.0399 6.7501 52.7509 7.69038 52.7146 9.37005C52.7509 9.60442 52.7481 9.85554 52.8346 10.0676C53.2587 11.1055 53.627 12.1769 54.1571 13.1591C56.738 17.9302 60.6414 21.2477 65.6162 23.3543C66.2105 23.6054 66.8244 23.6584 67.4243 23.4073C68.2501 23.0641 68.9505 22.534 69.4164 21.7723C70.0554 20.726 70.0637 20.0005 69.0118 19.2277C68.3227 18.7198 67.6447 18.1981 66.9471 17.7014C65.8841 16.9481 64.7345 16.817 63.9421 18.1395C63.9003 18.2065 63.8389 18.2623 63.7859 18.3181C63.3785 18.7505 62.8791 18.8566 62.349 18.6389C60.3373 17.8103 58.7832 16.4738 57.8457 14.4844C57.2932 13.3153 57.4439 12.7294 58.4762 11.9509C58.5795 11.8756 58.6771 11.7947 58.772 11.7082C59.224 11.2953 59.344 10.8042 59.0761 10.2489C58.4707 8.98222 57.6643 7.85221 56.6431 6.87845C56.3669 6.61617 56.0516 6.45155 55.7 6.43202ZM62.8149 7.14351C62.4996 7.14351 62.1871 7.16862 61.8802 7.22164C61.6207 7.25512 61.4003 7.42811 61.3055 7.67085C61.2106 7.91638 61.258 8.19261 61.4254 8.3935C61.5956 8.5916 61.8635 8.68367 62.1202 8.62787C62.3434 8.5916 62.5778 8.57207 62.8149 8.57207C65.1363 8.57207 67.0002 10.4359 67.0002 12.7573C67.0002 12.9945 66.9806 13.2288 66.9443 13.452C66.8885 13.7087 66.9806 13.9766 67.1787 14.1468C67.3796 14.3142 67.6558 14.3616 67.9014 14.2668C68.1441 14.1719 68.3171 13.9515 68.3506 13.692C68.4036 13.3851 68.4287 13.0726 68.4287 12.7573C68.4287 9.66581 65.9064 7.14351 62.8149 7.14351ZM62.7145 9.28635C62.4578 9.28356 62.2178 9.41748 62.0867 9.6407C61.9583 9.86391 61.9583 10.1373 62.0867 10.3606C62.2178 10.5838 62.4578 10.7177 62.7145 10.7149C63.9059 10.7149 64.8573 11.6663 64.8573 12.8577C64.8545 13.1144 64.9885 13.3544 65.2117 13.4855C65.4349 13.6139 65.7083 13.6139 65.9315 13.4855C66.1547 13.3544 66.2887 13.1144 66.2859 12.8577C66.2859 10.8935 64.6787 9.28635 62.7145 9.28635Z" fill="#DAD9D9"/>
<path d="M15 0C6.72361 0 0 6.72361 0 15C0 17.6603 0.729579 20.143 1.94633 22.3102L0.0242018 29.172C-0.00650604 29.2819 -0.00789353 29.3978 0.0201777 29.5083C0.0482489 29.6188 0.104798 29.72 0.184187 29.8019C0.263575 29.8837 0.36303 29.9433 0.472634 29.9747C0.582238 30.0061 0.698162 30.0083 0.808849 29.9809L7.96366 28.2078C10.0661 29.3302 12.4517 30 15 30C23.2764 30 30 23.2764 30 15C30 6.72361 23.2764 0 15 0ZM15 1.30435C22.5714 1.30435 28.6957 7.42856 28.6957 15C28.6957 22.5714 22.5714 28.6957 15 28.6957C12.5726 28.6957 10.2992 28.0628 8.32286 26.9569C8.17831 26.8762 8.00846 26.8534 7.84774 26.8933L1.58203 28.446L3.26214 22.4516C3.28618 22.3669 3.29282 22.2782 3.28166 22.1908C3.27049 22.1035 3.24176 22.0193 3.19718 21.9434C1.9961 19.9067 1.30435 17.537 1.30435 15C1.30435 7.42856 7.42856 1.30435 15 1.30435ZM9.54951 7.17391C9.13144 7.17391 8.53438 7.32945 8.0439 7.85793C7.74931 8.17536 6.52174 9.37142 6.52174 11.4742C6.52174 13.6665 8.04221 15.5582 8.22605 15.8012H8.22733V15.8025C8.20989 15.7796 8.46067 16.1427 8.79543 16.5782C9.13019 17.0137 9.59831 17.5856 10.1864 18.2048C11.3626 19.4432 13.0163 20.8744 15.0688 21.7497C16.014 22.1522 16.7597 22.3953 17.3246 22.5726C18.3716 22.9014 19.3253 22.8514 20.0416 22.7458C20.5778 22.6669 21.1675 22.4094 21.751 22.0402C22.3345 21.6709 22.9064 21.2118 23.1585 20.5142C23.3392 20.0141 23.431 19.5519 23.4643 19.1716C23.4809 18.9815 23.483 18.8137 23.4706 18.6583C23.4582 18.5029 23.4715 18.3839 23.3267 18.1462C23.0231 17.6477 22.6792 17.6347 22.3204 17.4571C22.121 17.3585 21.5535 17.0813 20.9842 16.81C20.4156 16.5391 19.9232 16.2991 19.62 16.191C19.4284 16.1221 19.1945 16.0228 18.857 16.0611C18.5195 16.0993 18.1862 16.3428 17.9921 16.6304C17.8082 16.9031 17.0676 17.7772 16.8419 18.0341C16.8389 18.0323 16.8585 18.0413 16.7693 17.9972C16.4901 17.859 16.1486 17.7415 15.6433 17.4749C15.1379 17.2084 14.5058 16.8148 13.8141 16.205V16.2037C12.7846 15.2974 12.0634 14.1594 11.8359 13.7772C11.8513 13.7589 11.8341 13.781 11.8665 13.7492L11.8678 13.7479C12.1003 13.5189 12.3064 13.2453 12.4805 13.0448C12.7273 12.7603 12.8363 12.5096 12.9543 12.2754C13.1895 11.8085 13.0586 11.2948 12.9225 11.0245V11.0233C12.9319 11.042 12.8489 10.8588 12.7594 10.6475C12.6697 10.4356 12.5554 10.1609 12.4333 9.86795C12.1892 9.28207 11.9165 8.62494 11.7544 8.24006V8.23879C11.5634 7.78545 11.305 7.45885 10.9672 7.30129C10.6294 7.14373 10.3309 7.18852 10.3189 7.18792H10.3176C10.0765 7.1768 9.81198 7.17391 9.54951 7.17391ZM9.54951 8.47826C9.80095 8.47826 10.0488 8.48133 10.2565 8.491C10.47 8.50164 10.4568 8.50252 10.4157 8.48336C10.3739 8.46389 10.4306 8.45758 10.552 8.74575C10.7107 9.12262 10.9847 9.78212 11.2296 10.3698C11.3521 10.6637 11.4667 10.9394 11.5583 11.1557C11.6498 11.372 11.6994 11.4928 11.757 11.6079V11.6092L11.7582 11.6105C11.8147 11.7218 11.8097 11.6505 11.7901 11.6895C11.6525 11.9626 11.6338 12.0297 11.4946 12.19C11.2826 12.4342 11.0664 12.7066 10.9519 12.8193C10.8518 12.9177 10.6711 13.0709 10.5583 13.3708C10.4454 13.6712 10.4981 14.0834 10.6793 14.3911C10.9207 14.8008 11.7159 16.0952 12.9518 17.1833C13.7301 17.8694 14.4552 18.3234 15.0344 18.629C15.6136 18.9345 16.0854 19.113 16.191 19.1653C16.4417 19.2893 16.7156 19.3857 17.0342 19.3474C17.3528 19.3092 17.6275 19.1159 17.8023 18.9181L17.8036 18.9169C18.0363 18.6531 18.7277 17.8635 19.0595 17.3769C19.0736 17.3818 19.069 17.378 19.1793 17.4176V17.4189H19.1805C19.2309 17.4368 19.8615 17.7191 20.4237 17.987C20.986 18.2549 21.5567 18.5334 21.7421 18.6252C22.0097 18.7576 22.1362 18.8438 22.1688 18.8443C22.171 18.9016 22.1733 18.9638 22.165 19.0583C22.1421 19.3202 22.0721 19.6828 21.9319 20.0709C21.8632 20.2609 21.5054 20.6528 21.0543 20.9383C20.6031 21.2239 20.0539 21.4256 19.8505 21.4555C19.2391 21.5456 18.513 21.5785 17.7157 21.3281C17.1628 21.1546 16.4735 20.93 15.5808 20.5498C13.7705 19.7778 12.2319 18.464 11.1328 17.3068C10.5833 16.7282 10.143 16.1896 9.82974 15.7821C9.51709 15.3754 9.38056 15.1637 9.26673 15.014L9.26546 15.0127C9.06339 14.7455 7.82609 13.0245 7.82609 11.4742C7.82609 9.83347 8.58815 9.19007 9.00051 8.74575C9.21699 8.5125 9.45366 8.47826 9.54951 8.47826Z" fill="#DAD9D9"/>
<path d="M102.569 0C97.8508 0 94 3.79219 94 8.45625C94 9.93047 94.4125 11.2969 95.0875 12.5063C94.9234 13.3641 94.825 14.2477 94.825 15.15C94.825 22.9617 101.245 29.2875 109.15 29.2875C109.975 29.2875 110.779 29.2148 111.569 29.0813C112.729 29.6648 114.041 30 115.431 30C120.149 30 124 26.2102 124 21.5438C124 20.2734 123.688 19.0828 123.175 18C123.37 17.0742 123.494 16.1273 123.494 15.15C123.494 7.34297 117.058 1.0125 109.15 1.0125C108.393 1.0125 107.648 1.0875 106.919 1.2C105.641 0.452344 104.163 0 102.569 0ZM102.569 1.2C104.015 1.2 105.353 1.60078 106.488 2.30625C106.609 2.38594 106.755 2.41875 106.9 2.4C107.634 2.27578 108.384 2.2125 109.15 2.2125C116.418 2.2125 122.294 8.00156 122.294 15.15C122.294 16.1039 122.195 17.0297 121.994 17.925C121.956 18.0633 121.97 18.2086 122.031 18.3375C122.523 19.3055 122.8 20.3836 122.8 21.5438C122.8 25.5539 119.512 28.8 115.431 28.8C114.168 28.8 112.977 28.4859 111.944 27.9375C111.829 27.8789 111.698 27.8578 111.569 27.8813C110.786 28.0242 109.973 28.0875 109.15 28.0875C101.882 28.0875 96.025 22.3055 96.025 15.15C96.025 14.2594 96.1141 13.3852 96.2875 12.5438C96.318 12.3961 96.2898 12.2414 96.2125 12.1125C95.568 11.0344 95.2 9.79688 95.2 8.45625C95.2 4.45078 98.4906 1.2 102.569 1.2ZM109.056 5.025C107.477 5.025 106.056 5.23828 104.838 5.68125C104.833 5.68359 104.823 5.67891 104.819 5.68125C103.588 6.13125 102.585 6.81563 101.894 7.70625C101.195 8.60156 100.825 9.67266 100.825 10.8188C100.825 12.0047 101.174 13.0711 101.856 13.9125C102.508 14.7141 103.38 15.3422 104.444 15.7875C105.456 16.2117 106.705 16.568 108.156 16.875C109.195 17.0906 110.036 17.2922 110.631 17.475C111.159 17.6367 111.573 17.8781 111.869 18.15C112.108 18.3703 112.206 18.5883 112.206 18.9938C112.206 19.4719 112.012 19.7883 111.438 20.175C110.866 20.5617 110.071 20.7938 109.019 20.7938C108.248 20.7938 107.655 20.6719 107.275 20.4938C106.851 20.2969 106.534 20.0578 106.338 19.8C106.091 19.4813 105.855 19.0617 105.625 18.5438C105.381 17.9789 105.065 17.5008 104.65 17.1563C104.209 16.7906 103.645 16.6125 103.056 16.6125C102.36 16.6125 101.709 16.8352 101.219 17.2875C100.736 17.7375 100.45 18.3609 100.45 19.0125C100.45 19.957 100.804 20.9039 101.444 21.8063C102.074 22.7063 102.918 23.4305 103.919 23.9625C105.323 24.6984 107.069 25.05 109.113 25.05C110.816 25.05 112.338 24.7922 113.631 24.2625C114.932 23.7305 115.975 22.9688 116.688 21.975C117.395 20.9859 117.754 19.8305 117.756 18.6C117.756 17.5852 117.552 16.6781 117.119 15.9188C116.699 15.1852 116.106 14.5711 115.375 14.1C114.674 13.65 113.835 13.2773 112.881 12.975C111.96 12.6844 110.927 12.4078 109.806 12.1688C109.797 12.1664 109.797 12.1711 109.788 12.1688C108.925 11.9719 108.292 11.8172 107.931 11.7188C107.601 11.6273 107.249 11.5055 106.919 11.3438C106.63 11.2008 106.434 11.032 106.3 10.875C106.199 10.7531 106.169 10.6734 106.169 10.4813C106.169 10.1977 106.277 9.97969 106.75 9.675C107.214 9.37266 107.887 9.20625 108.794 9.20625C109.785 9.20625 110.444 9.38906 110.725 9.6C111.116 9.89063 111.484 10.3313 111.794 10.9125C111.801 10.9195 111.805 10.9242 111.813 10.9313C112.127 11.4633 112.415 11.857 112.75 12.15C113.167 12.5109 113.72 12.6563 114.325 12.6563C115.023 12.6563 115.68 12.4008 116.163 11.9063C116.629 11.4305 116.913 10.8211 116.913 10.1813C116.913 9.56484 116.73 8.93672 116.406 8.34375C116.073 7.73438 115.563 7.18125 114.906 6.675C114.236 6.15703 113.409 5.74922 112.45 5.45625C111.473 5.15625 110.329 5.025 109.056 5.025ZM109.056 6.225C110.24 6.225 111.269 6.36328 112.094 6.61875C112.942 6.87891 113.648 7.22344 114.175 7.63125C114.73 8.06016 115.122 8.49844 115.356 8.925C115.602 9.375 115.713 9.79453 115.713 10.1813C115.713 10.5094 115.602 10.7719 115.319 11.0625C115.052 11.3391 114.745 11.4563 114.325 11.4563C113.913 11.4563 113.673 11.3672 113.538 11.25C113.364 11.1 113.127 10.793 112.863 10.35C112.855 10.3359 112.851 10.3266 112.844 10.3125C112.471 9.62578 112.007 9.05391 111.456 8.64375C110.816 8.16328 109.919 8.00625 108.794 8.00625C107.73 8.00625 106.818 8.2125 106.094 8.68125C105.419 9.11719 104.969 9.75469 104.969 10.4813C104.969 10.9055 105.114 11.3203 105.381 11.6438C105.644 11.9531 105.986 12.2109 106.394 12.4125C106.788 12.607 107.2 12.7688 107.613 12.8813C108.011 12.9891 108.66 13.1484 109.544 13.35C110.641 13.582 111.644 13.8422 112.525 14.1188C113.399 14.3977 114.149 14.7352 114.738 15.1125C115.319 15.4875 115.766 15.9563 116.088 16.5188C116.395 17.0578 116.556 17.7445 116.556 18.6C116.556 19.6008 116.28 20.4891 115.713 21.2813C115.152 22.0641 114.316 22.6922 113.181 23.1563C112.068 23.6133 110.695 23.85 109.113 23.85C107.209 23.85 105.658 23.5289 104.481 22.9125C103.635 22.4625 102.958 21.8555 102.438 21.1125C102.43 21.1125 102.426 21.1125 102.419 21.1125C101.887 20.3602 101.65 19.6594 101.65 19.0125C101.65 18.6727 101.77 18.4242 102.044 18.1688C102.309 17.925 102.604 17.8125 103.056 17.8125C103.41 17.8125 103.661 17.8898 103.881 18.075C104.102 18.2578 104.329 18.5695 104.519 19.0125C104.526 19.0195 104.53 19.0242 104.538 19.0313C104.795 19.6148 105.079 20.1141 105.4 20.5313C105.738 20.9719 106.202 21.3188 106.769 21.5813C107.385 21.8695 108.135 21.9938 109.019 21.9938C110.238 21.9938 111.285 21.743 112.113 21.1875C112.907 20.6531 113.406 19.868 113.406 18.9938C113.406 18.3281 113.146 17.7047 112.675 17.2688C112.22 16.8492 111.653 16.5352 110.988 16.3313C110.334 16.1297 109.459 15.9328 108.4 15.7125C107.001 15.4172 105.827 15.0633 104.913 14.6813C104.001 14.2992 103.305 13.7742 102.794 13.1438C102.295 12.5273 102.025 11.782 102.025 10.8188C102.025 9.91641 102.29 9.13125 102.831 8.4375C102.838 8.4375 102.843 8.4375 102.85 8.4375C103.38 7.75313 104.158 7.19766 105.231 6.80625C106.286 6.41953 107.577 6.225 109.056 6.225Z" fill="#DAD9D9"/>
</svg>
