<svg width="35" height="35" viewBox="0 0 35 35" fill="none" xmlns="http://www.w3.org/2000/svg">
<path d="M32.8724 27.4182L27.2979 21.8357L23.0101 20.0617C24.4378 18.0285 25.2027 15.6029 25.1999 13.1173C25.1999 6.43578 19.7719 1 13.1 1C6.42801 1 1 6.43578 1 13.1173C1 19.7988 6.42801 25.2346 13.1 25.2346C15.6036 25.2375 18.0458 24.4582 20.0863 23.0055L21.8531 27.2879L27.4274 32.8706C27.7849 33.2287 28.2094 33.5127 28.6765 33.7065C29.1436 33.9002 29.6442 34 30.1498 34C30.6554 34 31.1561 33.9003 31.6232 33.7066C32.0903 33.5128 32.5147 33.2288 32.8723 32.8708C33.2298 32.5128 33.5134 32.0878 33.7069 31.62C33.9004 31.1522 34 30.6509 34 30.1445C34 29.6382 33.9004 29.1369 33.707 28.6691C33.5135 28.2013 33.2299 27.7762 32.8724 27.4182ZM3.2 13.1173C3.2 7.65075 7.64123 3.20315 13.1 3.20315C18.5587 3.20315 23 7.65075 23 13.1173C23 18.5839 18.5587 23.0315 13.1 23.0315C7.64123 23.0315 3.2 18.5839 3.2 13.1173ZM31.3167 31.3128C31.007 31.6222 30.5874 31.796 30.1499 31.796C29.7125 31.796 29.2929 31.6222 28.9832 31.3128L23.7189 26.041L22.0762 22.0591L26.0524 23.7042L31.3168 28.976C31.6258 29.2862 31.7993 29.7064 31.7992 30.1444C31.7992 30.5825 31.6257 31.0027 31.3167 31.3128Z" fill="#21DA8C" stroke="#21DA8C" stroke-width="0.5"/>
</svg>
