<svg width="19" height="22" viewBox="0 0 19 22" fill="none" xmlns="http://www.w3.org/2000/svg">
<path d="M8.27097 5.9816L5.39543 2.27207C5.06393 1.84459 4.45619 1.84649 4.07114 2.27777L1.70645 4.92526C1.00266 5.71276 0.801207 6.88214 1.20835 7.81974C3.64072 13.4481 7.70236 17.9937 12.7351 20.72C13.5732 21.175 14.6187 20.9498 15.3225 20.1623L17.7093 17.4902C18.0961 17.0579 18.0969 16.3749 17.711 16.0044L14.379 12.8079C14.0305 12.4735 13.4891 12.5172 13.1397 12.9086L11.9803 14.2062C11.921 14.2757 11.8429 14.3216 11.7579 14.3367C11.673 14.3518 11.586 14.3353 11.5103 14.2898C9.61519 13.0702 8.04316 11.311 6.95432 9.19145C6.91355 9.10667 6.89878 9.00928 6.91229 8.91422C6.9258 8.81916 6.96685 8.73167 7.02912 8.66518L8.18512 7.37231C8.53532 6.97904 8.57356 6.37107 8.27097 5.98065V5.9816Z" stroke="#4B4B4B" stroke-width="2" stroke-linecap="round" stroke-linejoin="round"/>
</svg>
