<svg width="17" height="23" viewBox="0 0 17 23" fill="none" xmlns="http://www.w3.org/2000/svg">
<path d="M8.70868 3.31946C7.91171 3.31946 7.13265 3.5558 6.47 3.9986C5.80735 4.4414 5.29088 5.07076 4.9859 5.80711C4.68091 6.54345 4.60112 7.3537 4.7566 8.13541C4.91208 8.9171 5.29585 9.63514 5.85939 10.1987C6.42292 10.7623 7.14091 11.1461 7.92256 11.3016C8.7042 11.4571 9.5144 11.3773 10.2507 11.0723C10.987 10.7673 11.6163 10.2508 12.0591 9.58806C12.5019 8.92537 12.7382 8.14625 12.7382 7.34923C12.7382 6.28047 12.3136 5.25548 11.558 4.49975C10.8023 3.74402 9.77737 3.31946 8.70868 3.31946ZM8.70868 9.97246C8.18989 9.97246 7.68275 9.81861 7.25139 9.53037C6.82003 9.24212 6.48383 8.83243 6.2853 8.3531C6.08676 7.87377 6.03482 7.34632 6.13603 6.83747C6.23724 6.32861 6.48706 5.8612 6.8539 5.49434C7.22074 5.12747 7.68812 4.87763 8.19694 4.77642C8.70576 4.6752 9.23317 4.72715 9.71247 4.92569C10.1918 5.12424 10.6014 5.46046 10.8897 5.89185C11.1779 6.32324 11.3317 6.83041 11.3317 7.34923C11.3299 8.04374 11.0527 8.70916 10.561 9.19959C10.0693 9.69002 9.40313 9.96543 8.70868 9.96543V9.97246Z" fill="#4B4B4B"/>
<path d="M8.70884 6.96189e-10C6.51842 0.00182963 4.41773 0.870436 2.86558 2.4161C1.31343 3.96177 0.435951 6.0589 0.424805 8.24944C0.424805 11.5337 2.26726 14.2836 3.61746 16.2879L3.86359 16.6536C5.20696 18.6007 6.64808 20.4785 8.18142 22.2798L8.71587 22.9057L9.25033 22.2798C10.7835 20.4784 12.2246 18.6006 13.5682 16.6536L13.8143 16.2809C15.1575 14.2765 16.9999 11.5337 16.9999 8.24944C16.9888 6.05768 16.1103 3.95949 14.5566 2.41363C13.003 0.867757 10.9005 -2.83815e-05 8.70884 6.96189e-10ZM12.6399 15.4721L12.3867 15.8448C11.1772 17.6593 9.57381 19.6918 8.70884 20.6974C7.87903 19.6918 6.24051 17.6593 5.03095 15.8448L4.78482 15.4721C3.54011 13.6154 1.83126 11.0766 1.83126 8.22131C1.83126 7.31807 2.00916 6.42368 2.35479 5.58919C2.70042 4.75471 3.20702 3.99648 3.84566 3.35779C4.4843 2.71911 5.24248 2.21247 6.07691 1.86682C6.91133 1.52116 7.80567 1.34326 8.70884 1.34326C9.61202 1.34326 10.5064 1.52116 11.3408 1.86682C12.1752 2.21247 12.9334 2.71911 13.572 3.35779C14.2107 3.99648 14.7173 4.75471 15.0629 5.58919C15.4085 6.42368 15.5864 7.31807 15.5864 8.22131C15.5864 11.1047 13.8846 13.6436 12.6399 15.4721Z" fill="#4B4B4B"/>
</svg>
