<svg width="33" height="33" viewBox="0 0 33 33" fill="none" xmlns="http://www.w3.org/2000/svg">
<path d="M28.0736 7.51674H33V4.51005H28.0736C27.8258 3.63938 27.3739 2.88712 26.7793 2.35551C26.1847 1.8239 25.4761 1.53871 24.75 1.53871C24.0239 1.53871 23.3153 1.8239 22.7207 2.35551C22.1261 2.88712 21.6742 3.63938 21.4264 4.51005H12.9643V0H3.53571V4.51005H0V7.51674H3.53571V12.0268H12.9643V7.51674H21.4264C21.6024 8.14724 21.8862 8.71988 22.2572 9.19313C22.6282 9.66637 23.0771 10.0284 23.5714 10.2528V21.2573C22.7607 21.5273 22.0211 22.0679 21.4286 22.8237C20.8362 23.5794 20.4123 24.5228 20.2007 25.5569H0V28.5636H20.2007C20.4721 29.8375 21.0646 30.9621 21.8868 31.7638C22.7089 32.5656 23.7151 33 24.75 33C25.7849 33 26.7911 32.5656 27.6132 31.7638C28.4354 30.9621 29.0279 29.8375 29.2993 28.5636H33V25.5569H29.2993C29.0877 24.5228 28.6638 23.5794 28.0714 22.8237C27.4789 22.0679 26.7393 21.5273 25.9286 21.2573V10.2528C26.4229 10.0284 26.8718 9.66637 27.2428 9.19313C27.6138 8.71988 27.8976 8.14724 28.0736 7.51674ZM10.6071 9.02009H5.89286V3.0067H10.6071V9.02009ZM27.1071 27.0603C27.1071 27.6549 26.9689 28.2363 26.7099 28.7307C26.4509 29.2252 26.0828 29.6105 25.652 29.8381C25.2213 30.0657 24.7474 30.1252 24.2901 30.0092C23.8329 29.8932 23.4129 29.6068 23.0833 29.1863C22.7536 28.7658 22.5291 28.2301 22.4381 27.6468C22.3472 27.0636 22.3939 26.4591 22.5723 25.9097C22.7507 25.3603 23.0528 24.8907 23.4404 24.5603C23.8281 24.2299 24.2838 24.0536 24.75 24.0536C25.3752 24.0536 25.9747 24.3703 26.4168 24.9342C26.8588 25.4981 27.1071 26.2628 27.1071 27.0603Z" fill="#21DA8C"/>
</svg>
