<svg width="30" height="30" viewBox="0 0 30 30" fill="none" xmlns="http://www.w3.org/2000/svg">
<path d="M8.56875 0C3.85078 0 0 3.79219 0 8.45625C0 9.93047 0.4125 11.2969 1.0875 12.5063C0.923438 13.3641 0.825 14.2477 0.825 15.15C0.825 22.9617 7.24453 29.2875 15.15 29.2875C15.975 29.2875 16.7789 29.2148 17.5688 29.0813C18.7289 29.6648 20.0414 30 21.4313 30C26.1492 30 30 26.2102 30 21.5438C30 20.2734 29.6883 19.0828 29.175 18C29.3695 17.0742 29.4938 16.1273 29.4938 15.15C29.4938 7.34297 23.0578 1.0125 15.15 1.0125C14.393 1.0125 13.6477 1.0875 12.9188 1.2C11.6414 0.452344 10.1625 0 8.56875 0ZM8.56875 1.2C10.0148 1.2 11.3531 1.60078 12.4875 2.30625C12.6094 2.38594 12.7547 2.41875 12.9 2.4C13.6336 2.27578 14.3836 2.2125 15.15 2.2125C22.418 2.2125 28.2938 8.00156 28.2938 15.15C28.2938 16.1039 28.1953 17.0297 27.9938 17.925C27.9563 18.0633 27.9703 18.2086 28.0313 18.3375C28.5234 19.3055 28.8 20.3836 28.8 21.5438C28.8 25.5539 25.5117 28.8 21.4313 28.8C20.168 28.8 18.9773 28.4859 17.9438 27.9375C17.8289 27.8789 17.6977 27.8578 17.5688 27.8813C16.7859 28.0242 15.9727 28.0875 15.15 28.0875C7.88203 28.0875 2.025 22.3055 2.025 15.15C2.025 14.2594 2.11406 13.3852 2.2875 12.5438C2.31797 12.3961 2.28984 12.2414 2.2125 12.1125C1.56797 11.0344 1.2 9.79688 1.2 8.45625C1.2 4.45078 4.49063 1.2 8.56875 1.2ZM15.0563 5.025C13.4766 5.025 12.0563 5.23828 10.8375 5.68125C10.8328 5.68359 10.8234 5.67891 10.8188 5.68125C9.58828 6.13125 8.58516 6.81563 7.89375 7.70625C7.19531 8.60156 6.825 9.67266 6.825 10.8188C6.825 12.0047 7.17422 13.0711 7.85625 13.9125C8.50781 14.7141 9.37969 15.3422 10.4438 15.7875C11.4563 16.2117 12.7055 16.568 14.1563 16.875C15.1945 17.0906 16.0359 17.2922 16.6313 17.475C17.1586 17.6367 17.5734 17.8781 17.8688 18.15C18.1078 18.3703 18.2063 18.5883 18.2063 18.9938C18.2063 19.4719 18.0117 19.7883 17.4375 20.175C16.8656 20.5617 16.0711 20.7938 15.0188 20.7938C14.2477 20.7938 13.6547 20.6719 13.275 20.4938C12.8508 20.2969 12.5344 20.0578 12.3375 19.8C12.0914 19.4813 11.8547 19.0617 11.625 18.5438C11.3813 17.9789 11.0648 17.5008 10.65 17.1563C10.2094 16.7906 9.64453 16.6125 9.05625 16.6125C8.36016 16.6125 7.70859 16.8352 7.21875 17.2875C6.73594 17.7375 6.45 18.3609 6.45 19.0125C6.45 19.957 6.80391 20.9039 7.44375 21.8063C8.07422 22.7063 8.91797 23.4305 9.91875 23.9625C11.3227 24.6984 13.0688 25.05 15.1125 25.05C16.8164 25.05 18.3375 24.7922 19.6313 24.2625C20.932 23.7305 21.975 22.9688 22.6875 21.975C23.3953 20.9859 23.7539 19.8305 23.7563 18.6C23.7563 17.5852 23.5523 16.6781 23.1188 15.9188C22.6992 15.1852 22.1063 14.5711 21.375 14.1C20.6742 13.65 19.8352 13.2773 18.8813 12.975C17.9602 12.6844 16.9266 12.4078 15.8063 12.1688C15.7969 12.1664 15.7969 12.1711 15.7875 12.1688C14.925 11.9719 14.2922 11.8172 13.9313 11.7188C13.6008 11.6273 13.2492 11.5055 12.9188 11.3438C12.6305 11.2008 12.4336 11.032 12.3 10.875C12.1992 10.7531 12.1688 10.6734 12.1688 10.4813C12.1688 10.1977 12.2766 9.97969 12.75 9.675C13.2141 9.37266 13.8867 9.20625 14.7938 9.20625C15.7852 9.20625 16.4438 9.38906 16.725 9.6C17.1164 9.89063 17.4844 10.3313 17.7938 10.9125C17.8008 10.9195 17.8055 10.9242 17.8125 10.9313C18.1266 11.4633 18.4148 11.857 18.75 12.15C19.1672 12.5109 19.7203 12.6563 20.325 12.6563C21.0234 12.6563 21.6797 12.4008 22.1625 11.9063C22.6289 11.4305 22.9125 10.8211 22.9125 10.1813C22.9125 9.56484 22.7297 8.93672 22.4063 8.34375C22.0734 7.73438 21.5625 7.18125 20.9063 6.675C20.2359 6.15703 19.4086 5.74922 18.45 5.45625C17.4727 5.15625 16.3289 5.025 15.0563 5.025ZM15.0563 6.225C16.2398 6.225 17.2688 6.36328 18.0938 6.61875C18.9422 6.87891 19.6477 7.22344 20.175 7.63125C20.7305 8.06016 21.1219 8.49844 21.3563 8.925C21.6023 9.375 21.7125 9.79453 21.7125 10.1813C21.7125 10.5094 21.6023 10.7719 21.3188 11.0625C21.0516 11.3391 20.7445 11.4563 20.325 11.4563C19.9125 11.4563 19.6734 11.3672 19.5375 11.25C19.3641 11.1 19.1273 10.793 18.8625 10.35C18.8555 10.3359 18.8508 10.3266 18.8438 10.3125C18.4711 9.62578 18.007 9.05391 17.4563 8.64375C16.8164 8.16328 15.9188 8.00625 14.7938 8.00625C13.7297 8.00625 12.818 8.2125 12.0938 8.68125C11.4188 9.11719 10.9688 9.75469 10.9688 10.4813C10.9688 10.9055 11.1141 11.3203 11.3813 11.6438C11.6438 11.9531 11.9859 12.2109 12.3938 12.4125C12.7875 12.607 13.2 12.7688 13.6125 12.8813C14.0109 12.9891 14.6602 13.1484 15.5438 13.35C16.6406 13.582 17.6438 13.8422 18.525 14.1188C19.3992 14.3977 20.1492 14.7352 20.7375 15.1125C21.3188 15.4875 21.7664 15.9563 22.0875 16.5188C22.3945 17.0578 22.5563 17.7445 22.5563 18.6C22.5563 19.6008 22.2797 20.4891 21.7125 21.2813C21.1523 22.0641 20.3156 22.6922 19.1813 23.1563C18.068 23.6133 16.6945 23.85 15.1125 23.85C13.2094 23.85 11.6578 23.5289 10.4813 22.9125C9.63516 22.4625 8.95781 21.8555 8.4375 21.1125C8.43047 21.1125 8.42578 21.1125 8.41875 21.1125C7.88672 20.3602 7.65 19.6594 7.65 19.0125C7.65 18.6727 7.76953 18.4242 8.04375 18.1688C8.30859 17.925 8.60391 17.8125 9.05625 17.8125C9.41016 17.8125 9.66094 17.8898 9.88125 18.075C10.1016 18.2578 10.3289 18.5695 10.5188 19.0125C10.5258 19.0195 10.5305 19.0242 10.5375 19.0313C10.7953 19.6148 11.0789 20.1141 11.4 20.5313C11.7375 20.9719 12.2016 21.3188 12.7688 21.5813C13.3852 21.8695 14.1352 21.9938 15.0188 21.9938C16.2375 21.9938 17.2852 21.743 18.1125 21.1875C18.907 20.6531 19.4063 19.868 19.4063 18.9938C19.4063 18.3281 19.1461 17.7047 18.675 17.2688C18.2203 16.8492 17.6531 16.5352 16.9875 16.3313C16.3336 16.1297 15.4594 15.9328 14.4 15.7125C13.0008 15.4172 11.8266 15.0633 10.9125 14.6813C10.0008 14.2992 9.30469 13.7742 8.79375 13.1438C8.29453 12.5273 8.025 11.782 8.025 10.8188C8.025 9.91641 8.28984 9.13125 8.83125 8.4375C8.83828 8.4375 8.84297 8.4375 8.85 8.4375C9.37969 7.75313 10.1578 7.19766 11.2313 6.80625C12.2859 6.41953 13.5773 6.225 15.0563 6.225Z" fill="#6B6B6B"/>
</svg>
