<svg width="33" height="33" viewBox="0 0 33 33" fill="none" xmlns="http://www.w3.org/2000/svg">
<path fill-rule="evenodd" clip-rule="evenodd" d="M32.5347 5.85419L30.6951 5.4201L25.7235 10.365L22.9075 7.49619L27.7565 2.4074L27.332 0.538913C26.3073 0.196004 25.2356 0.0145372 24.1552 0.00101525C22.9766 -0.0171147 21.8068 0.207748 20.7189 0.661591C19.6685 1.13723 18.719 1.80995 17.9218 2.64332C17.0344 3.48417 16.3317 4.5005 15.8582 5.62771C14.9465 7.87103 14.9465 10.3818 15.8582 12.6251C10.9414 17.4638 6.08807 22.3666 1.2995 27.3323C0.804229 27.9811 0.568385 28.7903 0.629704 29.6043C0.678033 30.4797 1.0716 31.3001 1.72402 31.8856C2.01647 32.2041 2.36552 32.4683 2.75466 32.6594C3.1556 32.8364 3.58719 32.9378 4.0235 32.959C4.76877 32.9449 5.48338 32.6618 6.03761 32.164C9.68848 28.7266 16.6836 21.6655 20.6576 17.5275C21.7354 17.9852 22.8934 18.2211 24.0632 18.2188C25.2407 18.2178 26.4061 17.9808 27.4905 17.5217C28.5749 17.0626 29.5563 16.3907 30.3767 15.5458C32.062 13.8265 33.0032 11.513 32.997 9.10517C33.0242 8.00336 32.868 6.9047 32.5347 5.85419V5.85419ZM4.61075 30.4913C4.51998 30.572 4.41056 30.6287 4.29236 30.6565C4.17609 30.6766 4.05723 30.6766 3.94096 30.6565C3.81905 30.6379 3.70293 30.5919 3.60134 30.522C3.49232 30.4582 3.40014 30.3692 3.33248 30.2625C3.0023 29.9251 2.69334 29.2834 3.0023 28.9224C6.23336 25.4851 12.8865 18.7661 17.0468 14.6587C17.2827 14.9701 17.5421 15.2674 17.8204 15.5458C18.0987 15.836 18.3982 16.1049 18.7166 16.3503C14.6931 20.4789 8.13191 27.1177 4.61311 30.4913H4.61075ZM30.8319 9.10517C30.8366 10.91 30.1338 12.644 28.8697 13.9368C27.6082 15.1747 25.9116 15.8681 24.1445 15.8681C22.3775 15.8681 20.6809 15.1747 19.4194 13.9368C18.4949 12.9717 17.8633 11.7637 17.5982 10.4536C17.333 9.1434 17.4453 7.78486 17.9218 6.536C18.239 5.68606 18.731 4.91218 19.366 4.2644C20.0009 3.61662 20.7648 3.10936 21.608 2.77543C22.4087 2.44021 23.2683 2.26856 24.1363 2.27057H24.7353L20.4501 6.68935V8.33135L24.9193 12.7808H26.4759L30.8319 8.49649V9.10517V9.10517ZM5.3348 13.4107H8.94557L10.6083 15.1023L12.2073 13.5122L10.6389 11.9126V11.8112L10.7734 7.92085L10.2545 6.88988L3.50936 2.44987L2.11552 2.60557L0.155657 4.60853L0 6.02169L4.33482 12.9058L5.3348 13.4131V13.4107ZM3.10607 4.84209L8.5635 8.43751L8.47152 11.0869H5.93384L2.41504 5.51447L3.10607 4.84209V4.84209ZM19.8628 21.2621L21.4524 19.6744L28.7777 27.1884C29.3947 27.8371 29.7388 28.6982 29.7388 29.5936C29.7388 30.489 29.3947 31.3502 28.7777 31.9988C28.3138 32.4753 27.7172 32.801 27.0656 32.9336C26.414 33.0661 25.7376 32.9994 25.1245 32.742C24.7332 32.5684 24.3822 32.3153 24.0938 31.9988L16.6836 24.4423L18.285 22.8428L25.6716 30.3781C25.771 30.4877 25.8945 30.5725 26.0325 30.6258C26.3039 30.7361 26.6077 30.7361 26.8792 30.6258C27.0171 30.5724 27.1406 30.4876 27.24 30.3781C27.3432 30.2758 27.4236 30.1528 27.4758 30.0171C27.53 29.8787 27.5587 29.7316 27.5608 29.583C27.5584 29.4347 27.5305 29.2878 27.4782 29.1489C27.426 29.0133 27.3456 28.8903 27.2424 28.788L19.8628 21.2621Z" fill="#21DA8C"/>
</svg>
