<svg width="30" height="30" viewBox="0 0 30 30" fill="none" xmlns="http://www.w3.org/2000/svg">
<path d="M15 0C6.72361 0 0 6.72361 0 15C0 17.6603 0.729579 20.143 1.94633 22.3102L0.0242018 29.172C-0.00650604 29.2819 -0.00789353 29.3978 0.0201777 29.5083C0.0482489 29.6188 0.104798 29.72 0.184187 29.8019C0.263575 29.8837 0.36303 29.9433 0.472634 29.9747C0.582238 30.0061 0.698162 30.0083 0.808849 29.9809L7.96366 28.2078C10.0661 29.3302 12.4517 30 15 30C23.2764 30 30 23.2764 30 15C30 6.72361 23.2764 0 15 0ZM15 1.30435C22.5714 1.30435 28.6957 7.42856 28.6957 15C28.6957 22.5714 22.5714 28.6957 15 28.6957C12.5726 28.6957 10.2992 28.0628 8.32286 26.9569C8.17831 26.8762 8.00846 26.8534 7.84774 26.8933L1.58203 28.446L3.26214 22.4516C3.28618 22.3669 3.29282 22.2782 3.28166 22.1908C3.27049 22.1035 3.24176 22.0193 3.19718 21.9434C1.9961 19.9067 1.30435 17.537 1.30435 15C1.30435 7.42856 7.42856 1.30435 15 1.30435ZM9.54951 7.17391C9.13144 7.17391 8.53438 7.32945 8.0439 7.85793C7.74931 8.17536 6.52174 9.37142 6.52174 11.4742C6.52174 13.6665 8.04221 15.5582 8.22605 15.8012H8.22733V15.8025C8.20989 15.7796 8.46067 16.1427 8.79543 16.5782C9.13019 17.0137 9.59831 17.5856 10.1864 18.2048C11.3626 19.4432 13.0163 20.8744 15.0688 21.7497C16.014 22.1522 16.7597 22.3953 17.3246 22.5726C18.3716 22.9014 19.3253 22.8514 20.0416 22.7458C20.5778 22.6669 21.1675 22.4094 21.751 22.0402C22.3345 21.6709 22.9064 21.2118 23.1585 20.5142C23.3392 20.0141 23.431 19.5519 23.4643 19.1716C23.4809 18.9815 23.483 18.8137 23.4706 18.6583C23.4582 18.5029 23.4715 18.3839 23.3267 18.1462C23.0231 17.6477 22.6792 17.6347 22.3204 17.4571C22.121 17.3585 21.5535 17.0813 20.9842 16.81C20.4156 16.5391 19.9232 16.2991 19.62 16.191C19.4284 16.1221 19.1945 16.0228 18.857 16.0611C18.5195 16.0993 18.1862 16.3428 17.9921 16.6304C17.8082 16.9031 17.0676 17.7772 16.8419 18.0341C16.8389 18.0323 16.8585 18.0413 16.7693 17.9972C16.4901 17.859 16.1486 17.7415 15.6433 17.4749C15.1379 17.2084 14.5058 16.8148 13.8141 16.205V16.2037C12.7846 15.2974 12.0634 14.1594 11.8359 13.7772C11.8513 13.7589 11.8341 13.781 11.8665 13.7492L11.8678 13.7479C12.1003 13.5189 12.3064 13.2453 12.4805 13.0448C12.7273 12.7603 12.8363 12.5096 12.9543 12.2754C13.1895 11.8085 13.0586 11.2948 12.9225 11.0245V11.0233C12.9319 11.042 12.8489 10.8588 12.7594 10.6475C12.6697 10.4356 12.5554 10.1609 12.4333 9.86795C12.1892 9.28207 11.9165 8.62494 11.7544 8.24006V8.23879C11.5634 7.78545 11.305 7.45885 10.9672 7.30129C10.6294 7.14373 10.3309 7.18852 10.3189 7.18792H10.3176C10.0765 7.1768 9.81198 7.17391 9.54951 7.17391ZM9.54951 8.47826C9.80095 8.47826 10.0488 8.48133 10.2565 8.491C10.47 8.50164 10.4568 8.50252 10.4157 8.48336C10.3739 8.46389 10.4306 8.45758 10.552 8.74575C10.7107 9.12262 10.9847 9.78212 11.2296 10.3698C11.3521 10.6637 11.4667 10.9394 11.5583 11.1557C11.6498 11.372 11.6994 11.4928 11.757 11.6079V11.6092L11.7582 11.6105C11.8147 11.7218 11.8097 11.6505 11.7901 11.6895C11.6525 11.9626 11.6338 12.0297 11.4946 12.19C11.2826 12.4342 11.0664 12.7066 10.9519 12.8193C10.8518 12.9177 10.6711 13.0709 10.5583 13.3708C10.4454 13.6712 10.4981 14.0834 10.6793 14.3911C10.9207 14.8008 11.7159 16.0952 12.9518 17.1833C13.7301 17.8694 14.4552 18.3234 15.0344 18.629C15.6136 18.9345 16.0854 19.113 16.191 19.1653C16.4417 19.2893 16.7156 19.3857 17.0342 19.3474C17.3528 19.3092 17.6275 19.1159 17.8023 18.9181L17.8036 18.9169C18.0363 18.6531 18.7277 17.8635 19.0595 17.3769C19.0736 17.3818 19.069 17.378 19.1793 17.4176V17.4189H19.1805C19.2309 17.4368 19.8615 17.7191 20.4237 17.987C20.986 18.2549 21.5567 18.5334 21.7421 18.6252C22.0097 18.7576 22.1362 18.8438 22.1688 18.8443C22.171 18.9016 22.1733 18.9638 22.165 19.0583C22.1421 19.3202 22.0721 19.6828 21.9319 20.0709C21.8632 20.2609 21.5054 20.6528 21.0543 20.9383C20.6031 21.2239 20.0539 21.4256 19.8505 21.4555C19.2391 21.5456 18.513 21.5785 17.7157 21.3281C17.1628 21.1546 16.4735 20.93 15.5808 20.5498C13.7705 19.7778 12.2319 18.464 11.1328 17.3068C10.5833 16.7282 10.143 16.1896 9.82974 15.7821C9.51709 15.3754 9.38056 15.1637 9.26673 15.014L9.26546 15.0127C9.06339 14.7455 7.82609 13.0245 7.82609 11.4742C7.82609 9.83347 8.58815 9.19007 9.00051 8.74575C9.21699 8.5125 9.45366 8.47826 9.54951 8.47826Z" fill="#6B6B6B"/>
</svg>
