<svg width="30" height="33" viewBox="0 0 30 33" fill="none" xmlns="http://www.w3.org/2000/svg">
<path d="M14.59 0.00072575C13.6163 0.00630641 12.6397 0.0648994 11.6548 0.184876C9.77146 0.416458 7.90485 0.801499 6.11357 1.62459C3.26483 2.93317 1.24476 5.15413 0.658825 8.38234C0.410502 9.74393 0.209611 11.1251 0.0952153 12.5146C-0.125207 15.2126 0.0115104 17.9191 0.776012 20.5781C1.37868 22.6735 2.48916 24.5568 4.4339 25.7789C5.25699 26.2951 6.34236 26.5462 6.90876 26.8085C7.0678 26.8838 7.10686 26.9285 7.11524 26.9396C7.12361 26.948 7.14593 26.9675 7.14314 27.1349C7.1236 28.8425 7.14314 32.1461 7.14314 32.1461L7.14593 32.8575H8.42103L8.6275 32.6566C8.6275 32.6566 11.8669 29.5401 13.0387 28.2566C13.2508 28.0278 13.3596 27.8994 13.3819 27.8855C13.4014 27.8715 13.368 27.8632 13.5856 27.8576C15.123 27.8269 16.6576 27.7683 18.1921 27.6846C20.215 27.573 22.2769 27.3805 24.2607 26.5518C25.9878 25.8291 27.4303 24.6489 28.3036 22.88C29.1965 21.0664 29.6736 19.1439 29.8522 17.1546C30.1479 13.8427 30.0447 10.5252 29.1295 7.25512C28.591 5.33828 27.5084 3.71721 25.8483 2.57325C23.8617 1.20607 21.6212 0.692683 19.4282 0.366236C18.1475 0.176505 16.8584 0.0509488 15.5638 0.0118864C15.2402 0.00351572 14.9165 -0.00206422 14.59 0.00072575ZM15.5247 1.44044C16.7552 1.47393 17.9857 1.5939 19.2189 1.77805C21.3338 2.09334 23.3288 2.57325 25.0392 3.75069C26.4259 4.70492 27.2908 5.99397 27.754 7.63737C28.6078 10.6954 28.7166 13.8287 28.4292 17.029C28.2646 18.8733 27.8265 20.6116 27.0202 22.2494C26.3087 23.6947 25.1982 24.6126 23.7083 25.2348C21.9784 25.9575 20.0978 26.15 18.1168 26.2588C16.599 26.3425 15.0783 26.3983 13.5577 26.429C13.1754 26.4374 12.8016 26.5378 12.5365 26.7332C12.2714 26.9285 12.1515 27.1098 11.9868 27.2884C11.1498 28.2036 9.48128 29.8135 8.57169 30.6952C8.56611 29.6293 8.55774 28.3403 8.57169 27.1517C8.57727 26.7862 8.49357 26.4123 8.28431 26.1165C8.07505 25.8208 7.78766 25.6422 7.51144 25.5139C6.70508 25.14 5.6504 24.8554 5.19282 24.568C3.59406 23.5635 2.68727 22.0569 2.14877 20.1819C1.44286 17.7293 1.30893 15.2043 1.51819 12.6345C1.6298 11.3008 1.82232 9.96435 2.06506 8.63903C2.57287 5.84609 4.16884 4.0883 6.70787 2.92201C8.31221 2.18541 10.0254 1.82269 11.8306 1.60227C13.061 1.4516 14.2915 1.40417 15.5247 1.44044ZM15.8261 5.00068C15.2374 5.00068 14.6654 5.06764 14.1101 5.19041C13.7279 5.27969 13.4851 5.66194 13.5716 6.04698C13.6581 6.43202 14.0432 6.67198 14.4282 6.58548C14.8774 6.48225 15.3462 6.42923 15.8261 6.42923C19.3138 6.42923 22.1262 9.24171 22.1262 12.7266C22.1262 13.2093 22.0732 13.678 21.97 14.13C21.8835 14.5123 22.1235 14.8973 22.5085 14.9838C22.8935 15.0703 23.2758 14.8276 23.3623 14.4425C23.4878 13.8901 23.5548 13.3181 23.5548 12.7266C23.5548 8.46883 20.0866 5.00068 15.8261 5.00068ZM8.70004 6.43202C8.58285 6.42644 8.46288 6.43481 8.33732 6.46271C7.0399 6.7501 5.75085 7.69038 5.71458 9.37005C5.75085 9.60442 5.74806 9.85554 5.83456 10.0676C6.25866 11.1055 6.62696 12.1769 7.15709 13.1591C9.73798 17.9302 13.6414 21.2477 18.6162 23.3543C19.2105 23.6054 19.8244 23.6584 20.4243 23.4073C21.2501 23.0641 21.9505 22.534 22.4164 21.7723C23.0554 20.726 23.0637 20.0005 22.0118 19.2277C21.3227 18.7198 20.6447 18.1981 19.9471 17.7014C18.8841 16.9481 17.7345 16.817 16.9421 18.1395C16.9003 18.2065 16.8389 18.2623 16.7859 18.3181C16.3785 18.7505 15.8791 18.8566 15.349 18.6389C13.3373 17.8103 11.7832 16.4738 10.8457 14.4844C10.2932 13.3153 10.4439 12.7294 11.4762 11.9509C11.5795 11.8756 11.6771 11.7947 11.772 11.7082C12.224 11.2953 12.344 10.8042 12.0761 10.2489C11.4707 8.98222 10.6643 7.85221 9.64311 6.87845C9.36689 6.61617 9.0516 6.45155 8.70004 6.43202ZM15.8149 7.14351C15.4996 7.14351 15.1871 7.16862 14.8802 7.22164C14.6207 7.25512 14.4003 7.42811 14.3055 7.67085C14.2106 7.91638 14.258 8.19261 14.4254 8.3935C14.5956 8.5916 14.8635 8.68367 15.1202 8.62787C15.3434 8.5916 15.5778 8.57207 15.8149 8.57207C18.1363 8.57207 20.0002 10.4359 20.0002 12.7573C20.0002 12.9945 19.9806 13.2288 19.9443 13.452C19.8885 13.7087 19.9806 13.9766 20.1787 14.1468C20.3796 14.3142 20.6558 14.3616 20.9014 14.2668C21.1441 14.1719 21.3171 13.9515 21.3506 13.692C21.4036 13.3851 21.4287 13.0726 21.4287 12.7573C21.4287 9.66581 18.9064 7.14351 15.8149 7.14351ZM15.7145 9.28635C15.4578 9.28356 15.2178 9.41748 15.0867 9.6407C14.9583 9.86391 14.9583 10.1373 15.0867 10.3606C15.2178 10.5838 15.4578 10.7177 15.7145 10.7149C16.9059 10.7149 17.8573 11.6663 17.8573 12.8577C17.8545 13.1144 17.9885 13.3544 18.2117 13.4855C18.4349 13.6139 18.7083 13.6139 18.9315 13.4855C19.1547 13.3544 19.2887 13.1144 19.2859 12.8577C19.2859 10.8935 17.6787 9.28635 15.7145 9.28635Z" fill="#6B6B6B"/>
</svg>
